<mxfile host="app.diagrams.net" modified="2023-09-05T06:37:05.724Z" agent="Mozilla/5.0 (Windows NT 10.0; Win64; x64) AppleWebKit/537.36 (KHTML, like Gecko) Chrome/116.0.0.0 Safari/537.36" etag="Rww_7pJ4dcmzrlcnEr8V" version="21.7.2" type="github">
  <diagram name="Page-1" id="jK0qL04O8SdPGak4mHgc">
    <mxGraphModel dx="880" dy="478" grid="1" gridSize="10" guides="1" tooltips="1" connect="1" arrows="1" fold="1" page="1" pageScale="1" pageWidth="850" pageHeight="1100" math="0" shadow="0">
      <root>
        <mxCell id="0" />
        <mxCell id="1" parent="0" />
        <mxCell id="4Nn6uD3_41Nf9GCkgoHi-34" value="&lt;h1&gt;KARUNG RACING&lt;/h1&gt;" style="rounded=0;whiteSpace=wrap;html=1;align=center;verticalAlign=top;" vertex="1" parent="1">
          <mxGeometry x="217.5" y="70" width="390" height="590" as="geometry" />
        </mxCell>
        <mxCell id="4Nn6uD3_41Nf9GCkgoHi-40" style="rounded=0;orthogonalLoop=1;jettySize=auto;html=1;entryX=0;entryY=0.5;entryDx=0;entryDy=0;endArrow=none;endFill=0;exitX=0.5;exitY=0.5;exitDx=0;exitDy=0;exitPerimeter=0;" edge="1" parent="1" source="4Nn6uD3_41Nf9GCkgoHi-1" target="4Nn6uD3_41Nf9GCkgoHi-22">
          <mxGeometry relative="1" as="geometry" />
        </mxCell>
        <mxCell id="4Nn6uD3_41Nf9GCkgoHi-1" value="Racers" style="shape=umlActor;verticalLabelPosition=bottom;verticalAlign=top;html=1;outlineConnect=0;" vertex="1" parent="1">
          <mxGeometry x="110" y="250" width="70" height="150" as="geometry" />
        </mxCell>
        <mxCell id="4Nn6uD3_41Nf9GCkgoHi-37" style="rounded=0;orthogonalLoop=1;jettySize=auto;html=1;entryX=1;entryY=0.5;entryDx=0;entryDy=0;endArrow=none;endFill=0;exitX=0.5;exitY=0.5;exitDx=0;exitDy=0;exitPerimeter=0;" edge="1" parent="1" source="4Nn6uD3_41Nf9GCkgoHi-2" target="4Nn6uD3_41Nf9GCkgoHi-35">
          <mxGeometry relative="1" as="geometry" />
        </mxCell>
        <mxCell id="4Nn6uD3_41Nf9GCkgoHi-41" style="rounded=0;orthogonalLoop=1;jettySize=auto;html=1;entryX=1;entryY=0.5;entryDx=0;entryDy=0;endArrow=none;endFill=0;exitX=0.5;exitY=0.5;exitDx=0;exitDy=0;exitPerimeter=0;" edge="1" parent="1" source="4Nn6uD3_41Nf9GCkgoHi-2" target="4Nn6uD3_41Nf9GCkgoHi-22">
          <mxGeometry relative="1" as="geometry" />
        </mxCell>
        <mxCell id="4Nn6uD3_41Nf9GCkgoHi-2" value="Panitia/juri" style="shape=umlActor;verticalLabelPosition=bottom;verticalAlign=top;html=1;outlineConnect=0;" vertex="1" parent="1">
          <mxGeometry x="660" y="230" width="80" height="160" as="geometry" />
        </mxCell>
        <mxCell id="4Nn6uD3_41Nf9GCkgoHi-39" style="rounded=0;orthogonalLoop=1;jettySize=auto;html=1;entryX=0.5;entryY=0;entryDx=0;entryDy=0;" edge="1" parent="1" source="4Nn6uD3_41Nf9GCkgoHi-20" target="4Nn6uD3_41Nf9GCkgoHi-22">
          <mxGeometry relative="1" as="geometry" />
        </mxCell>
        <mxCell id="4Nn6uD3_41Nf9GCkgoHi-20" value="LONCAT" style="ellipse;whiteSpace=wrap;html=1;" vertex="1" parent="1">
          <mxGeometry x="328.75" y="270" width="155" height="100" as="geometry" />
        </mxCell>
        <mxCell id="4Nn6uD3_41Nf9GCkgoHi-22" value="FINISH" style="ellipse;whiteSpace=wrap;html=1;" vertex="1" parent="1">
          <mxGeometry x="328.75" y="400" width="157.5" height="90" as="geometry" />
        </mxCell>
        <mxCell id="4Nn6uD3_41Nf9GCkgoHi-28" value="" style="endArrow=none;html=1;rounded=0;entryX=0;entryY=0.5;entryDx=0;entryDy=0;exitX=0.5;exitY=0.5;exitDx=0;exitDy=0;exitPerimeter=0;" edge="1" parent="1" source="4Nn6uD3_41Nf9GCkgoHi-1" target="4Nn6uD3_41Nf9GCkgoHi-20">
          <mxGeometry width="50" height="50" relative="1" as="geometry">
            <mxPoint x="380" y="490" as="sourcePoint" />
            <mxPoint x="430" y="440" as="targetPoint" />
          </mxGeometry>
        </mxCell>
        <mxCell id="4Nn6uD3_41Nf9GCkgoHi-38" style="rounded=0;orthogonalLoop=1;jettySize=auto;html=1;exitX=0.5;exitY=1;exitDx=0;exitDy=0;entryX=0.5;entryY=0;entryDx=0;entryDy=0;" edge="1" parent="1" source="4Nn6uD3_41Nf9GCkgoHi-35" target="4Nn6uD3_41Nf9GCkgoHi-20">
          <mxGeometry relative="1" as="geometry" />
        </mxCell>
        <mxCell id="4Nn6uD3_41Nf9GCkgoHi-35" value="START" style="ellipse;whiteSpace=wrap;html=1;" vertex="1" parent="1">
          <mxGeometry x="331.25" y="140" width="150" height="100" as="geometry" />
        </mxCell>
      </root>
    </mxGraphModel>
  </diagram>
</mxfile>
